<?xml version="1.0" encoding="utf-8"?>
<!-- Generator: Adobe Illustrator 22.0.1, SVG Export Plug-In . SVG Version: 6.00 Build 0)  -->
<svg version="1.1" id="Capa_1" xmlns="http://www.w3.org/2000/svg" xmlns:xlink="http://www.w3.org/1999/xlink" x="0px" y="0px"
	 viewBox="0 0 442.7 74.6" style="enable-background:new 0 0 442.7 74.6;" xml:space="preserve">
<style type="text/css">
	.st0{fill:#00C1DE;}
	.st1{fill:#003A5D;}
</style>
<title>Recurso 1</title>
<g>
	
		<rect x="65" y="39.1" transform="matrix(0.7071 -0.7071 0.7071 0.7071 -11.6421 62.8888)" class="st0" width="10.2" height="12.8"/>
	<path class="st0" d="M120,73.3c9.2,0,18.4-3.5,25.4-10.5c14-14,14-36.8,0-50.8c-7-7-16.2-10.5-25.4-10.5c-9.2,0-18.4,3.5-25.4,10.6
		L84,1.4H65.9l28.7,28.7l9.1-9.1c4.4-4.4,10.1-6.8,16.3-6.8c6.2,0,12,2.4,16.3,6.8c9,9,9,23.7,0,32.7c-4.4,4.4-10.2,6.8-16.3,6.8
		c-6.2,0-12-2.4-16.3-6.8L61.9,11.9c-7-7-16.2-10.6-25.4-10.6c-9.2,0-18.4,3.5-25.4,10.5c-14,14-14,36.8,0,50.8
		c7,7,16.2,10.5,25.4,10.5c9.2,0,18.4-3.5,25.4-10.5l9.1-9.1l-9.1-9.1l-9.1,9.1c-4.4,4.4-10.2,6.8-16.3,6.8c-6.2,0-12-2.4-16.3-6.8
		c-9-9-9-23.7,0-32.7c4.4-4.4,10.2-6.8,16.3-6.8c6.2,0,11.9,2.4,16.3,6.8l41.7,41.7C101.6,69.7,110.8,73.3,120,73.3z"/>
</g>
<g>
	<path class="st1" d="M292,24.5c7.1,0,12.8,5.8,12.8,12.9c0,7.1-5.7,12.8-12.8,12.8c-7.1,0-12.9-5.7-12.9-12.8
		C279.1,30.2,284.9,24.5,292,24.5 M292,14.2c-12.8,0-23.1,10.4-23.1,23.1c0,12.7,10.3,23.1,23.1,23.1c12.8,0,23.1-10.3,23.1-23.1
		C315.1,24.6,304.7,14.2,292,14.2L292,14.2z"/>
	<path class="st1" d="M442.1,50.1v10.3h-35.9V14.2h10.3v35.9H442.1z"/>
	<polygon class="st1" points="311,60.4 324.8,60.4 336.6,45.9 348.2,60.4 361.8,60.4 343.3,37.4 361.8,14.2 348.2,14.2 336.6,28.8 
		324.7,14.2 311,14.2 329.7,37.2 	"/>
	<path class="st1" d="M220.7,45.6c0,9.2-7.3,14.8-14.3,14.8h-26.1V14.2h24.8c6.7,0,13.7,4.8,13.7,13.8c0,3.1-0.7,5.7-1.8,7.8
		C219.1,38.3,220.7,41.6,220.7,45.6z M190.6,32.2h13.9c2.1-0.1,4.1-1.8,4.1-4.4s-2-4.6-4.1-4.6h-13.9V32.2z M210.5,46
		c0-2.9-2.2-4.8-4.6-4.8h-15.4v9.6H206C208.5,50.8,210.5,48.7,210.5,46z"/>
	<polygon class="st1" points="401.1,24.5 401.1,14.2 365.1,14.2 365.1,60.4 401.1,60.4 401.1,50.1 375.4,50.1 375.4,41.8 394,41.8 
		394,32.8 375.4,32.8 375.4,24.5 	"/>
	<path class="st1" d="M255.3,44.4c5.7-2.4,9.8-8,9.8-14.5c0-8.7-7.2-15.7-16-15.7h-22.5v46.2h10.3V45.7h6.6l12.8,14.8h13.3
		L255.3,44.4z M249,35.4h-12.2V23.8H249c3.2,0,5.8,2.6,5.8,5.8S252.2,35.4,249,35.4z"/>
</g>
</svg>
